<svg id="Layer_1" data-name="Layer 1" xmlns="http://www.w3.org/2000/svg" viewBox="0 0 239.51 166.77"><defs><style>.cls-1,.cls-2{fill:none;stroke:#000;stroke-miterlimit:10;}.cls-1{stroke-width:5px;}.cls-2{stroke-width:6px;}</style></defs><title>mind_logo</title><line class="cls-1" x1="57.19" y1="52.98" x2="83.12" y2="71.72"/><line class="cls-1" x1="113.69" y1="75.54" x2="94.94" y2="75.54"/><line class="cls-1" x1="116.4" y1="58.63" x2="93.99" y2="72.16"/><line class="cls-1" x1="113.61" y1="35.05" x2="91.86" y2="70"/><line class="cls-1" x1="113.55" y1="24" x2="106.88" y2="13.54"/><line class="cls-1" x1="121.15" y1="8.51" x2="118.31" y2="23.1"/><line class="cls-1" x1="132.44" y1="21.2" x2="122.81" y2="26.4"/><line class="cls-2" x1="136.69" y1="119.08" x2="136.69" y2="119.08"/><line class="cls-1" x1="75.77" y1="134.95" x2="24.07" y2="148.1"/><line class="cls-1" x1="53.85" y1="100.98" x2="80.02" y2="116.07"/><line class="cls-1" x1="88.23" y1="106.71" x2="51.51" y2="58.81"/><line class="cls-2" x1="88.23" y1="106.71" x2="88.23" y2="106.71"/><line class="cls-1" x1="188.25" y1="66.31" x2="132.25" y2="111.88"/><path class="cls-2" d="M138.76,61.16a6.52,6.52,0,0,1-.06-11" transform="translate(-25.15 -26.11)"/><path class="cls-2" d="M143.46,49.21a6.58,6.58,0,0,1,4.5,3.31" transform="translate(-25.15 -26.11)"/><path class="cls-2" d="M138.7,50.12a6.51,6.51,0,0,1,4.76-.91" transform="translate(-25.15 -26.11)"/><path class="cls-2" d="M138.76,61.16a6.52,6.52,0,0,0,10-5.54,6.48,6.48,0,0,0-.78-3.1" transform="translate(-25.15 -26.11)"/><path class="cls-2" d="M108.27,97.83a6.53,6.53,0,1,0,11.82,3.82" transform="translate(-25.15 -26.11)"/><path class="cls-2" d="M119.14,98.28A6.59,6.59,0,0,0,117,96.11" transform="translate(-25.15 -26.11)"/><path class="cls-2" d="M108.27,97.83A6.51,6.51,0,0,1,117,96.11" transform="translate(-25.15 -26.11)"/><path class="cls-2" d="M119.14,98.28a6.45,6.45,0,0,1,1,3.37" transform="translate(-25.15 -26.11)"/><path class="cls-2" d="M220.68,159.28a14,14,0,1,0-1.21-5.68,13.84,13.84,0,0,0,1.21,5.68" transform="translate(-25.15 -26.11)"/><circle class="cls-2" cx="13.53" cy="150.82" r="10.53"/><path class="cls-2" d="M79,127.09a12.63,12.63,0,1,0-10.94,6.34A12.58,12.58,0,0,0,79,127.09" transform="translate(-25.15 -26.11)"/><path class="cls-2" d="M82.34,79.09a28,28,0,1,0-5.67,5.83,28.24,28.24,0,0,0,5.67-5.83" transform="translate(-25.15 -26.11)"/><path class="cls-2" d="M213.41,92.42a27.17,27.17,0,1,0-6.1-17.16,27.11,27.11,0,0,0,6.1,17.16" transform="translate(-25.15 -26.11)"/><path class="cls-2" d="M113.38,132.82a31.83,31.83,0,0,1,44,5.18" transform="translate(-25.15 -26.11)"/><path class="cls-2" d="M157.4,138a32,32,0,0,1,4.44,7.2" transform="translate(-25.15 -26.11)"/><path class="cls-2" d="M105.17,142.18a31.82,31.82,0,1,0,59.24,18.88c.08-1,.13-2,.13-3a31.68,31.68,0,0,0-2.7-12.86h0" transform="translate(-25.15 -26.11)"/><path class="cls-2" d="M113.38,132.82h0a1.39,1.39,0,0,1-.19.15,32.21,32.21,0,0,0-8,9.21" transform="translate(-25.15 -26.11)"/><circle cx="136.69" cy="18.77" r="5.9"/><circle cx="122.03" cy="4.94" r="4.94"/><circle cx="120" cy="75.54" r="6.97"/><circle cx="121.15" cy="56.36" r="5.99"/><circle cx="105.2" cy="10.61" r="4.63"/><line class="cls-2" x1="139.26" y1="134.95" x2="195.62" y2="130.3"/></svg>